<svg xmlns="http://www.w3.org/2000/svg" xmlns:xlink="http://www.w3.org/1999/xlink" fill="none" version="1.1" width="14.4375" height="16" viewBox="0 0 14.4375 16"><defs><clipPath id="master_svg0_105_4426"><rect x="0" y="0" width="14.4375" height="16" rx="0"/></clipPath></defs><g clip-path="url(#master_svg0_105_4426)"><g transform="matrix(1,0,0,-1,0,32.75)"><g><path d="M9.375,25.0625L2.5,31.9688L9.375,25.0625L2.5,31.9688L11.25,26.9375L9.375,25.0625ZM0.6875,32.375Q0.03125,32.0312,0,31.2812L0,17.46875Q0.03125,16.71875,0.6875,16.375L8.71875,24.375L0.6875,32.375ZM13.9688,25.3125L12.125,26.375L13.9688,25.3125L12.125,26.375L10.0938,24.375L12.125,22.34375L14,23.4375Q14.4375,23.78125,14.4375,24.375Q14.4375,24.96875,13.9688,25.3125ZM2.5,16.78125L11.25,21.8125L2.5,16.78125L11.25,21.8125L9.375,23.6875L2.5,16.78125Z" fill="#FFFFFF" fill-opacity="1" style="mix-blend-mode:passthrough"/></g></g></g></svg>