<svg xmlns="http://www.w3.org/2000/svg" xmlns:xlink="http://www.w3.org/1999/xlink" fill="none" version="1.1" width="12" height="16" viewBox="0 0 12 16"><defs><clipPath id="master_svg0_105_4411"><rect x="0" y="0" width="12" height="16" rx="0"/></clipPath></defs><g clip-path="url(#master_svg0_105_4411)"><g transform="matrix(1,0,0,-1,0,30.75)"><g><path d="M10.0532,21.96875Q10.0213,23.6875,11.6489,24.625Q10.7234,25.875,8.93617,26.0313Q8.39362,26.0625,7.85106,25.9063Q7.30851,25.75,6.89362,25.5938Q6.38298,25.4062,6.12766,25.375Q5.7766,25.4062,5.23404,25.625Q4.46809,25.9375,3.67021,26Q2.26596,25.9688,1.18085,24.9375Q0.0638298,23.90625,0,21.8125Q0,20.59375,0.446809,19.28125Q0.670213,18.6875,1.18085,17.75Q1.69149,16.84375,2.39362,16.125Q3.09574,15.40625,3.89362,15.375Q4.40426,15.40625,4.91489,15.625Q5.48936,15.90625,6.28723,15.9375Q7.05319,15.90625,7.59574,15.65625Q8.10638,15.40625,8.74468,15.375Q9.51064,15.4375,10.1809,16.09375Q10.8511,16.78125,11.3298,17.625Q11.8085,18.5,12,19.09375Q10.5638,19.875,10.2766,20.84375Q9.98936,21.78125,10.0532,21.96875ZM8.23404,27.0938Q8.84043,27.875,8.96809,28.5Q9.06383,29.0938,9,29.375Q8.42553,29.3438,7.81915,29.0313Q7.24468,28.7188,6.82979,28.2813Q5.96809,27.3438,6.03191,26.0313Q7.2766,26,8.23404,27.0938Z" fill="#FFFFFF" fill-opacity="1" style="mix-blend-mode:passthrough"/></g></g></g></svg>