<svg xmlns="http://www.w3.org/2000/svg" xmlns:xlink="http://www.w3.org/1999/xlink" fill="none" version="1.1" width="12.25" height="14" viewBox="0 0 12.25 14"><defs><clipPath id="master_svg0_105_4436"><rect x="0" y="0" width="12.25" height="14" rx="0"/></clipPath></defs><g clip-path="url(#master_svg0_105_4436)"><g transform="matrix(1,0,0,-1,0,28.6015625)"><g><path d="M4.34766,28.164081250000002Q4.73047,28.464881249999998,5.11328,28.136681250000002Q6.23438,27.09768125,7.24609,25.839881249999998Q7.68359,26.46878125,8.25781,27.01558125Q8.64062,27.34378125,9.02344,27.01558125Q9.73438,26.33198125,10.3086,25.48438125Q10.9102,24.664081250000002,11.3203,23.78906125Q11.7578,22.94140125,12.0039,22.14844125Q12.25,21.35547125,12.25,20.72656125Q12.2227,18.97656125,11.4297,17.52734125Q10.6094,16.07812125,9.21484,15.20312525Q7.84766,14.32812505,6.125,14.30078125Q4.40234,14.32812505,3.00781,15.20312525Q1.64062,16.07812125,0.820312,17.52734125Q0.0273438,18.97656125,0,20.72656125Q0.0546875,22.367191249999998,1.23047,24.33598125Q2.40625,26.33198125,4.34766,28.164081250000002ZM6.17969,16.92578125Q7.19141,16.92578125,8.06641,17.50000125Q8.91406,18.12890125,9.13281,19.16797125Q9.32422,20.17969125,8.83203,21.16406125Q8.55859,21.54687125,8.20312,21.21875125L7.51953,20.42578125Q7.16406,20.12500125,6.83594,20.45312125Q6.48047,20.89062125,5.98828,21.51953125Q5.49609,22.14844125,5.11328,22.61328125Q4.78516,22.94140125,4.45703,22.640621250000002Q3.74609,21.76562125,3.41797,21.13672125Q3.0625,20.50781125,3.0625,19.90625125Q3.08984,18.48437125,3.96484,17.71875125Q4.83984,16.92578125,6.17969,16.92578125Z" fill="#6B7280" fill-opacity="1" style="mix-blend-mode:passthrough"/></g></g></g></svg>