<svg xmlns="http://www.w3.org/2000/svg" xmlns:xlink="http://www.w3.org/1999/xlink" fill="none" version="1.1" width="15.75" height="14" viewBox="0 0 15.75 14"><defs><clipPath id="master_svg0_105_4461"><rect x="0" y="0" width="15.75" height="14" rx="0"/></clipPath></defs><g clip-path="url(#master_svg0_105_4461)"><g transform="matrix(1,0,0,-1,0,28.6015625)"><g><path d="M14.875,28.30078125Q15.2578,28.30078125,15.5039,28.05468125Q15.75,27.80858125,15.75,27.42578125L15.75,15.17578125Q15.75,14.79296925,15.5039,14.54687525Q15.2578,14.30078125,14.875,14.30078125Q14.4922,14.30078125,14.2461,14.54687525Q14,14.79296925,14,15.17578125L14,27.42578125Q14,27.80858125,14.2461,28.05468125Q14.4922,28.30078125,14.875,28.30078125ZM11.375,25.67578125Q11.7578,25.67578125,12.0039,25.42968125Q12.25,25.18358125,12.25,24.80078125L12.25,15.17578125Q12.25,14.79296925,12.0039,14.54687525Q11.7578,14.30078125,11.375,14.30078125Q10.9922,14.30078125,10.7461,14.54687525Q10.5,14.79296925,10.5,15.17578125L10.5,24.80078125Q10.5,25.18358125,10.7461,25.42968125Q10.9922,25.67578125,11.375,25.67578125ZM8.75,22.17578125L8.75,15.17578125L8.75,22.17578125L8.75,15.17578125Q8.75,14.79296925,8.50391,14.54687525Q8.25781,14.30078125,7.875,14.30078125Q7.49219,14.30078125,7.24609,14.54687525Q7,14.79296925,7,15.17578125L7,22.17578125Q7,22.55859125,7.24609,22.804691249999998Q7.49219,23.05078125,7.875,23.05078125Q8.25781,23.05078125,8.50391,22.804691249999998Q8.75,22.55859125,8.75,22.17578125ZM4.375,20.42578125Q4.75781,20.42578125,5.00391,20.17969125Q5.25,19.93359125,5.25,19.55078125L5.25,15.17578125Q5.25,14.79296925,5.00391,14.54687525Q4.75781,14.30078125,4.375,14.30078125Q3.99219,14.30078125,3.74609,14.54687525Q3.5,14.79296925,3.5,15.17578125L3.5,19.55078125Q3.5,19.93359125,3.74609,20.17969125Q3.99219,20.42578125,4.375,20.42578125ZM1.75,16.92578125L1.75,15.17578125L1.75,16.92578125L1.75,15.17578125Q1.75,14.79296925,1.50391,14.54687525Q1.25781,14.30078125,0.875,14.30078125Q0.492188,14.30078125,0.246094,14.54687525Q0,14.79296925,0,15.17578125L0,16.92578125Q0,17.30859125,0.246094,17.55469125Q0.492188,17.80078125,0.875,17.80078125Q1.25781,17.80078125,1.50391,17.55469125Q1.75,17.30859125,1.75,16.92578125Z" fill="#6B7280" fill-opacity="1" style="mix-blend-mode:passthrough"/></g></g></g></svg>